<svg width="21" height="21" viewBox="0 0 21 21" fill="currentColor" xmlns="http://www.w3.org/2000/svg">
<mask id="mask0_46_771" style="mask-type:alpha" maskUnits="userSpaceOnUse" x="0" y="0" width="21" height="21">
<rect x="0.020752" y="0.5" width="20" height="20" fill="currentColor"/>
</mask>
<g mask="url(#mask0_46_771)">
<path d="M5.22913 14.4582H10.6458V13.2082H5.22913V14.4582ZM13.5625 14.4582H14.8125V6.5415H13.5625V14.4582ZM5.22913 11.1248H10.6458V9.87484H5.22913V11.1248ZM5.22913 7.7915H10.6458V6.5415H5.22913V7.7915ZM3.61058 17.5832C3.18961 17.5832 2.83329 17.4373 2.54163 17.1457C2.24996 16.854 2.10413 16.4977 2.10413 16.0767V4.92296C2.10413 4.50199 2.24996 4.14567 2.54163 3.854C2.83329 3.56234 3.18961 3.4165 3.61058 3.4165H16.431C16.852 3.4165 17.2083 3.56234 17.5 3.854C17.7916 4.14567 17.9375 4.50199 17.9375 4.92296V16.0767C17.9375 16.4977 17.7916 16.854 17.5 17.1457C17.2083 17.4373 16.852 17.5832 16.431 17.5832H3.61058ZM3.61058 16.3332H16.431C16.4952 16.3332 16.5539 16.3064 16.6073 16.253C16.6607 16.1996 16.6875 16.1409 16.6875 16.0767V4.92296C16.6875 4.8588 16.6607 4.80005 16.6073 4.74671C16.5539 4.69324 16.4952 4.6665 16.431 4.6665H3.61058C3.54642 4.6665 3.48767 4.69324 3.43433 4.74671C3.38086 4.80005 3.35413 4.8588 3.35413 4.92296V16.0767C3.35413 16.1409 3.38086 16.1996 3.43433 16.253C3.48767 16.3064 3.54642 16.3332 3.61058 16.3332Z" fill="currentColor"/>
</g>
</svg>
