<svg width="20" height="20" viewBox="0 0 20 20" fill="none" xmlns="http://www.w3.org/2000/svg">
<mask id="mask0_1_2685" style="mask-type:alpha" maskUnits="userSpaceOnUse" x="0" y="0" width="20" height="20">
<rect width="20" height="20" fill="#D9D9D9"/>
</mask>
<g mask="url(#mask0_1_2685)">
<path d="M5.6665 15.8337V4.16699H10.2707C11.1734 4.16699 12.0068 4.44477 12.7707 5.00033C13.5346 5.55588 13.9165 6.32671 13.9165 7.31283C13.9165 8.02116 13.7568 8.5663 13.4373 8.94824C13.1179 9.33019 12.8193 9.60449 12.5415 9.77116C12.8887 9.92394 13.2741 10.2087 13.6978 10.6253C14.1214 11.042 14.3332 11.667 14.3332 12.5003C14.3332 13.7364 13.8818 14.601 12.979 15.0941C12.0762 15.5871 11.229 15.8337 10.4373 15.8337H5.6665ZM8.18734 13.5003H10.354C11.0207 13.5003 11.4269 13.3302 11.5728 12.9899C11.7186 12.6496 11.7915 12.4031 11.7915 12.2503C11.7915 12.0975 11.7186 11.851 11.5728 11.5107C11.4269 11.1705 10.9998 11.0003 10.2915 11.0003H8.18734V13.5003ZM8.18734 8.75033H10.1248C10.5832 8.75033 10.9165 8.63227 11.1248 8.39616C11.3332 8.16005 11.4373 7.89616 11.4373 7.60449C11.4373 7.27116 11.3193 7.00033 11.0832 6.79199C10.8471 6.58366 10.5415 6.47949 10.1665 6.47949H8.18734V8.75033Z" fill="#1C1B1F"/>
</g>
</svg>
