<svg width="24" height="25" viewBox="0 0 24 25" fill="none" xmlns="http://www.w3.org/2000/svg">
<rect y="0.5" width="24" height="24" rx="4" fill="#D63939"/>
<mask id="mask0_46_300" style="mask-type:alpha" maskUnits="userSpaceOnUse" x="2" y="2" width="20" height="21">
<rect x="2" y="2.5" width="20" height="20" fill="#D9D9D9"/>
</mask>
<g mask="url(#mask0_46_300)">
<path d="M8.08979 19.5831C7.67424 19.5831 7.31924 19.436 7.02479 19.1417C6.73049 18.8472 6.58333 18.4922 6.58333 18.0767V7.49978H5.75V6.24978H9.5V5.5127H14.5V6.24978H18.25V7.49978H17.4167V18.0767C17.4167 18.4976 17.2708 18.8539 16.9792 19.1456C16.6875 19.4373 16.3312 19.5831 15.9102 19.5831H8.08979ZM16.1667 7.49978H7.83333V18.0767C7.83333 18.1515 7.85736 18.213 7.90542 18.261C7.95347 18.3091 8.01493 18.3331 8.08979 18.3331H15.9102C15.9744 18.3331 16.0331 18.3064 16.0865 18.2529C16.1399 18.1996 16.1667 18.1408 16.1667 18.0767V7.49978ZM9.83667 16.6664H11.0865V9.16645H9.83667V16.6664ZM12.9135 16.6664H14.1633V9.16645H12.9135V16.6664Z" fill="white"/>
</g>
</svg>
