<svg width="24" height="25" viewBox="0 0 24 25" fill="none" xmlns="http://www.w3.org/2000/svg">
<rect y="0.5" width="24" height="24" rx="4" fill="#206BC4"/>
<mask id="mask0_46_296" style="mask-type:alpha" maskUnits="userSpaceOnUse" x="2" y="2" width="20" height="21">
<rect x="2" y="2.5" width="20" height="20" fill="#D9D9D9"/>
</mask>
<g mask="url(#mask0_46_296)">
<path d="M6.42321 19.5834C6.00223 19.5834 5.64591 19.4375 5.35425 19.1459C5.06258 18.8542 4.91675 18.4979 4.91675 18.0769V6.92314C4.91675 6.50217 5.06258 6.14585 5.35425 5.85419C5.64591 5.56252 6.00223 5.41669 6.42321 5.41669H13.6363L12.3863 6.66669H6.42321C6.35904 6.66669 6.30029 6.69342 6.24696 6.74689C6.19348 6.80023 6.16675 6.85898 6.16675 6.92314V18.0769C6.16675 18.1411 6.19348 18.1998 6.24696 18.2531C6.30029 18.3066 6.35904 18.3334 6.42321 18.3334H17.577C17.6411 18.3334 17.6999 18.3066 17.7532 18.2531C17.8067 18.1998 17.8334 18.1411 17.8334 18.0769V12.0609L19.0834 10.8109V18.0769C19.0834 18.4979 18.9376 18.8542 18.6459 19.1459C18.3542 19.4375 17.9979 19.5834 17.577 19.5834H6.42321ZM9.91675 14.5834V11.7227L17.4665 4.17314C17.5957 4.04384 17.7378 3.94953 17.8928 3.89023C18.0477 3.83092 18.2052 3.80127 18.3655 3.80127C18.529 3.80127 18.686 3.83092 18.8365 3.89023C18.9872 3.94953 19.1245 4.04113 19.2484 4.16502L20.2949 5.20835C20.4156 5.33766 20.5083 5.4803 20.573 5.63627C20.6376 5.79224 20.6699 5.95037 20.6699 6.11064C20.6699 6.27092 20.6424 6.42634 20.5874 6.57689C20.5324 6.72759 20.4402 6.86752 20.3109 6.99669L12.7372 14.5834H9.91675ZM11.1667 13.3334H12.2053L17.399 8.13939L16.8799 7.62023L16.3238 7.08502L11.1667 12.2421V13.3334Z" fill="white"/>
</g>
</svg>
