<svg width="21" height="21" viewBox="0 0 21 21" fill="none" xmlns="http://www.w3.org/2000/svg">
<path d="M19.2509 10.6944C19.2509 9.97495 19.1913 9.44995 19.0624 8.90552H10.6794V12.1527H15.6C15.5009 12.9597 14.9652 14.175 13.7747 14.9916L13.758 15.1003L16.4085 17.1126L16.5921 17.1305C18.2786 15.6041 19.2509 13.3583 19.2509 10.6944Z" fill="#4285F4"/>
<path d="M10.6789 19.25C13.0896 19.25 15.1134 18.4722 16.5916 17.1305L13.7741 14.9916C13.0202 15.5068 12.0083 15.8666 10.6789 15.8666C8.31785 15.8666 6.31391 14.3402 5.59956 12.2305L5.49485 12.2392L2.7388 14.3295L2.70276 14.4277C4.17099 17.286 7.18686 19.25 10.6789 19.25Z" fill="#34A853"/>
<path d="M5.60002 12.2306C5.41153 11.6862 5.30245 11.1028 5.30245 10.5C5.30245 9.89722 5.41153 9.31391 5.5901 8.76948L5.58511 8.65352L2.79451 6.52966L2.70321 6.57222C2.09808 7.75835 1.75085 9.09032 1.75085 10.5C1.75085 11.9098 2.09808 13.2417 2.70321 14.4278L5.60002 12.2306Z" fill="#FBBC05"/>
<path d="M10.679 5.13331C12.3555 5.13331 13.4865 5.84303 14.1313 6.43613L16.6512 4.025C15.1036 2.61528 13.0897 1.75 10.679 1.75C7.18689 1.75 4.171 3.71387 2.70276 6.57218L5.58966 8.76944C6.31393 6.65972 8.31789 5.13331 10.679 5.13331Z" fill="#EB4335"/>
</svg>
