<svg width="20" height="21" viewBox="0 0 20 21" fill="currentColor" xmlns="http://www.w3.org/2000/svg">
<mask id="mask0_46_756" style="mask-type:alpha" maskUnits="userSpaceOnUse" x="0" y="0" width="20" height="21">
<rect y="0.5" width="20" height="20" fill="#D9D9D9"/>
</mask>
<g mask="url(#mask0_46_756)">
<path d="M8.33329 11.9585H11.4502V10.7085H8.33329V11.9585ZM8.33329 9.4585H14.5673V8.2085H8.33329V9.4585ZM8.33329 6.9585H14.5673V5.7085H8.33329V6.9585ZM6.71475 15.0835C6.29378 15.0835 5.93746 14.9377 5.64579 14.646C5.35413 14.3543 5.20829 13.998 5.20829 13.577V4.08995C5.20829 3.66898 5.35413 3.31266 5.64579 3.021C5.93746 2.72933 6.29378 2.5835 6.71475 2.5835H16.2018C16.6228 2.5835 16.9791 2.72933 17.2708 3.021C17.5625 3.31266 17.7083 3.66898 17.7083 4.08995V13.577C17.7083 13.998 17.5625 14.3543 17.2708 14.646C16.9791 14.9377 16.6228 15.0835 16.2018 15.0835H6.71475ZM6.71475 13.8335H16.2018C16.266 13.8335 16.3248 13.8068 16.3781 13.7533C16.4316 13.7 16.4583 13.6412 16.4583 13.577V4.08995C16.4583 4.02579 16.4316 3.96704 16.3781 3.9137C16.3248 3.86023 16.266 3.8335 16.2018 3.8335H6.71475C6.65058 3.8335 6.59183 3.86023 6.5385 3.9137C6.48503 3.96704 6.45829 4.02579 6.45829 4.08995V13.577C6.45829 13.6412 6.48503 13.7 6.5385 13.7533C6.59183 13.8068 6.65058 13.8335 6.71475 13.8335ZM3.79808 18.0002C3.37711 18.0002 3.02079 17.8543 2.72913 17.5627C2.43746 17.271 2.29163 16.9147 2.29163 16.4937V5.75662H3.54163V16.4937C3.54163 16.5579 3.56836 16.6166 3.62183 16.67C3.67517 16.7234 3.73392 16.7502 3.79808 16.7502H14.5352V18.0002H3.79808Z" fill="currentColor"/>
</g>
</svg>
