<svg width="16" height="16" viewBox="0 0 16 16" fill="none" xmlns="http://www.w3.org/2000/svg">
<path d="M14.2852 15.1477L9.05125 9.91351C8.63459 10.2575 8.15542 10.5268 7.61375 10.7212C7.07209 10.9157 6.51174 11.0129 5.93271 11.0129C4.50841 11.0129 3.30299 10.5198 2.31646 9.53351C1.32993 8.54726 0.83667 7.34212 0.83667 5.91809C0.83667 4.4942 1.32979 3.28865 2.31604 2.30143C3.30229 1.31434 4.50743 0.820801 5.93146 0.820801C7.35535 0.820801 8.56091 1.31406 9.54813 2.30059C10.5352 3.28712 11.0288 4.49254 11.0288 5.91684C11.0288 6.51198 10.9289 7.08038 10.7292 7.62205C10.5293 8.16372 10.2627 8.63483 9.92938 9.03539L15.1633 14.2693L14.2852 15.1477ZM5.93271 9.76309C7.00646 9.76309 7.91591 9.39045 8.66105 8.64518C9.40632 7.90004 9.77896 6.99059 9.77896 5.91684C9.77896 4.84309 9.40632 3.93365 8.66105 3.18851C7.91591 2.44323 7.00646 2.07059 5.93271 2.07059C4.85896 2.07059 3.94952 2.44323 3.20438 3.18851C2.4591 3.93365 2.08646 4.84309 2.08646 5.91684C2.08646 6.99059 2.4591 7.90004 3.20438 8.64518C3.94952 9.39045 4.85896 9.76309 5.93271 9.76309Z" fill="#BEBEBE"/>
</svg>
