<svg width="21" height="21" viewBox="0 0 21 21" fill="currentColor" xmlns="http://www.w3.org/2000/svg">
<mask id="mask0_46_816" style="mask-type:alpha" maskUnits="userSpaceOnUse" x="0" y="0" width="21" height="21">
<rect x="0.020752" y="0.5" width="20" height="20" fill="#D9D9D9"/>
</mask>
<g mask="url(#mask0_46_816)">
<path d="M8.09767 18.4168L7.78038 15.8783C7.55719 15.8036 7.3283 15.6989 7.09371 15.5643C6.85927 15.4296 6.64962 15.2854 6.46475 15.1316L4.11371 16.1252L2.1908 12.7918L4.22434 11.255C4.20517 11.1311 4.19156 11.0066 4.1835 10.8816C4.17545 10.7566 4.17142 10.6321 4.17142 10.5081C4.17142 10.3896 4.17545 10.2692 4.1835 10.1468C4.19156 10.0245 4.20517 9.89065 4.22434 9.74537L2.1908 8.2085L4.11371 4.8912L6.45663 5.87683C6.6576 5.71766 6.87212 5.57211 7.10017 5.44016C7.32823 5.30822 7.55232 5.20218 7.77246 5.12204L8.09767 2.5835H11.9439L12.2612 5.12995C12.5112 5.22079 12.7374 5.32683 12.9398 5.44808C13.1423 5.56933 13.3466 5.71225 13.5529 5.87683L15.9279 4.8912L17.8508 8.2085L15.7852 9.76933C15.815 9.90391 15.8314 10.0297 15.8341 10.1468C15.8368 10.2638 15.8381 10.3816 15.8381 10.5002C15.8381 10.6134 15.8354 10.7285 15.83 10.8456C15.8247 10.9625 15.8055 11.0963 15.7725 11.247L17.822 12.7918L15.8989 16.1252L13.5529 15.1235C13.3466 15.2881 13.1361 15.4336 12.9214 15.5602C12.7067 15.6868 12.4866 15.7902 12.2612 15.8704L11.9439 18.4168H8.09767ZM9.18746 17.1668H10.8254L11.125 14.9345C11.5502 14.8234 11.9389 14.6656 12.2908 14.461C12.6429 14.2563 12.9824 13.9931 13.3093 13.6716L15.3798 14.5418L16.2004 13.1252L14.3927 11.7631C14.4621 11.5472 14.5093 11.3356 14.5343 11.1283C14.5595 10.9211 14.572 10.7117 14.572 10.5002C14.572 10.2832 14.5595 10.0738 14.5343 9.87204C14.5093 9.67009 14.4621 9.46384 14.3927 9.25329L16.2162 7.87516L15.3958 6.4585L13.3012 7.34141C13.0223 7.04336 12.6882 6.78002 12.2989 6.55141C11.9095 6.3228 11.5155 6.16093 11.117 6.06579L10.8541 3.8335H9.20038L8.92455 6.05787C8.49941 6.15829 8.10684 6.31211 7.74684 6.51933C7.3867 6.72669 7.04316 6.99377 6.71621 7.32058L4.6458 6.4585L3.82538 7.87516L5.62496 9.21641C5.55552 9.41419 5.50691 9.61988 5.47913 9.8335C5.45135 10.0471 5.43746 10.272 5.43746 10.5081C5.43746 10.725 5.45135 10.9377 5.47913 11.146C5.50691 11.3543 5.55288 11.56 5.61705 11.7631L3.82538 13.1252L4.6458 14.5418L6.7083 13.6668C7.02455 13.9916 7.36267 14.2576 7.72267 14.465C8.08281 14.6722 8.4808 14.8313 8.91663 14.9425L9.18746 17.1668ZM10.0304 13.0002C10.7237 13.0002 11.3137 12.7568 11.8004 12.2702C12.287 11.7835 12.5304 11.1935 12.5304 10.5002C12.5304 9.80683 12.287 9.21683 11.8004 8.73016C11.3137 8.2435 10.7237 8.00016 10.0304 8.00016C9.32844 8.00016 8.73628 8.2435 8.25392 8.73016C7.77156 9.21683 7.53038 9.80683 7.53038 10.5002C7.53038 11.1935 7.77156 11.7835 8.25392 12.2702C8.73628 12.7568 9.32844 13.0002 10.0304 13.0002Z" fill="currentColor"/>
</g>
</svg>
