<svg width="20" height="20" viewBox="0 0 20 20" fill="none" xmlns="http://www.w3.org/2000/svg">
<mask id="mask0_1_2691" style="mask-type:alpha" maskUnits="userSpaceOnUse" x="0" y="0" width="20" height="20">
<rect width="20" height="20" fill="#D9D9D9"/>
</mask>
<g mask="url(#mask0_1_2691)">
<path d="M4.1665 17.5V15.8333H15.8332V17.5H4.1665ZM9.99984 14.1667C8.59706 14.1667 7.50678 13.7292 6.729 12.8542C5.95123 11.9792 5.56234 10.8194 5.56234 9.375V2.5H7.70817V9.5C7.70817 10.2778 7.90262 10.9097 8.2915 11.3958C8.68039 11.8819 9.24984 12.125 9.99984 12.125C10.7498 12.125 11.3193 11.8819 11.7082 11.3958C12.0971 10.9097 12.2915 10.2778 12.2915 9.5V2.5H14.4373V9.375C14.4373 10.8194 14.0484 11.9792 13.2707 12.8542C12.4929 13.7292 11.4026 14.1667 9.99984 14.1667Z" fill="#1C1B1F"/>
</g>
</svg>
