<svg width="60" height="60" viewBox="0 0 60 60" fill="none" xmlns="http://www.w3.org/2000/svg">
<mask id="mask0_1_3549" style="mask-type:alpha" maskUnits="userSpaceOnUse" x="0" y="0" width="60" height="60">
<rect width="60" height="60" fill="#D9D9D9"/>
</mask>
<g mask="url(#mask0_1_3549)">
<path d="M14.5 49.25C13.4167 49.25 12.5208 48.8958 11.8125 48.1875C11.1042 47.4792 10.75 46.5833 10.75 45.5V14.5C10.75 13.4167 11.1042 12.5208 11.8125 11.8125C12.5208 11.1042 13.4167 10.75 14.5 10.75H31.25V12.5H14.5C13.9167 12.5 13.4375 12.6875 13.0625 13.0625C12.6875 13.4375 12.5 13.9167 12.5 14.5V45.5C12.5 46.0833 12.6875 46.5625 13.0625 46.9375C13.4375 47.3125 13.9167 47.5 14.5 47.5H45.5C46.0833 47.5 46.5625 47.3125 46.9375 46.9375C47.3125 46.5625 47.5 46.0833 47.5 45.5V28.75H49.25V45.5C49.25 46.5833 48.8958 47.4792 48.1875 48.1875C47.4792 48.8958 46.5833 49.25 45.5 49.25H14.5ZM17.5 40.5H42.5L34.8125 30.25L27.3125 39.5625L22.5 34L17.5 40.5ZM42.5 22.5V17.5H37.5V15.75H42.5V10.75H44.25V15.75H49.25V17.5H44.25V22.5H42.5Z" fill="#6C7A91"/>
</g>
</svg>
